<?xml version="1.0" standalone="no"?>
<!DOCTYPE svg PUBLIC "-//W3C//DTD SVG 20010904//EN"
 "http://www.w3.org/TR/2001/REC-SVG-20010904/DTD/svg10.dtd">
<svg version="1.0" xmlns="http://www.w3.org/2000/svg"
 width="576.000000pt" height="576.000000pt" viewBox="0 0 576.000000 576.000000"
 preserveAspectRatio="xMidYMid meet">

<g transform="translate(0.000000,576.000000) scale(0.100000,-0.100000)"
fill="#000000" stroke="none">
<path d="M2558 4647 c-12 -4 -31 -6 -40 -3 -10 2 -18 0 -18 -6 0 -5 -18 -7
-43 -3 -32 5 -46 3 -56 -9 -9 -11 -19 -13 -37 -5 -17 6 -41 5 -71 -2 -35 -9
-47 -9 -53 1 -6 9 -9 9 -15 1 -5 -9 -11 -9 -19 -2 -9 8 -18 6 -31 -8 -9 -11
-30 -23 -46 -26 -16 -4 -29 -11 -29 -16 0 -6 -4 -8 -9 -5 -5 4 -22 0 -38 -8
-66 -33 -112 -50 -168 -62 -109 -23 -130 -31 -127 -43 1 -7 -2 -10 -8 -6 -15
10 -73 -30 -145 -99 -35 -33 -93 -89 -129 -123 -36 -34 -66 -65 -66 -68 0 -4
-27 -39 -60 -79 -33 -40 -60 -76 -60 -80 0 -4 -9 -16 -20 -28 -18 -20 -39
-110 -30 -133 2 -5 3 -22 2 -38 -1 -22 6 -31 38 -47 22 -11 47 -20 56 -20 13
0 14 -3 4 -15 -6 -8 -9 -19 -5 -26 4 -6 4 -14 -1 -18 -31 -22 -85 -105 -93
-142 -13 -61 -9 -135 7 -131 6 1 12 -2 12 -8 0 -5 6 -10 13 -10 30 -1 35 -14
25 -65 -13 -64 -17 -175 -6 -175 4 0 8 -11 8 -25 0 -14 9 -34 20 -45 18 -18
18 -21 5 -26 -9 -4 -13 -13 -10 -24 4 -13 0 -16 -17 -15 -38 3 -98 -17 -98
-31 0 -8 -7 -14 -16 -14 -23 0 -61 -33 -56 -49 3 -9 -2 -11 -17 -6 -15 4 -19
3 -16 -7 3 -8 -7 -21 -25 -31 -16 -10 -30 -22 -30 -28 0 -5 -7 -9 -16 -9 -11
0 -14 -6 -9 -20 3 -11 2 -20 -3 -20 -11 0 -27 -47 -23 -69 2 -8 -3 -12 -12 -8
-11 4 -13 0 -10 -14 3 -10 2 -27 -2 -36 -4 -10 -9 -27 -11 -38 -2 -11 -7 -42
-11 -70 -7 -43 -7 -119 0 -225 1 -14 8 -30 17 -37 8 -7 10 -13 4 -13 -20 0 -8
-61 18 -94 14 -17 28 -40 32 -52 3 -11 19 -28 36 -37 16 -10 30 -22 30 -27 0
-5 17 -14 38 -20 20 -7 45 -19 54 -27 9 -8 21 -12 27 -9 5 4 12 3 15 -2 6 -10
60 -5 91 8 11 4 43 16 70 26 56 19 113 53 134 78 7 9 16 16 20 16 3 0 7 -33 9
-73 2 -70 6 -117 11 -127 1 -3 4 -18 6 -35 13 -103 34 -216 44 -240 25 -58 40
-103 45 -132 3 -17 14 -51 25 -75 10 -24 22 -50 25 -58 4 -8 18 -33 31 -55 14
-22 29 -51 35 -63 6 -13 19 -26 30 -29 11 -3 20 -12 20 -19 0 -16 115 -104
136 -104 8 0 26 -7 39 -16 13 -9 29 -13 34 -10 5 4 14 0 18 -9 5 -8 18 -16 31
-18 12 -2 32 -13 45 -25 15 -14 30 -20 40 -16 12 4 17 1 17 -10 0 -9 5 -16 10
-16 6 0 10 5 10 10 0 6 5 10 10 10 6 0 10 -6 10 -14 0 -20 21 -31 30 -17 5 9
10 8 20 -4 12 -14 15 -14 33 2 20 17 20 17 14 0 -4 -11 -3 -16 4 -12 5 4 16 1
24 -5 8 -6 19 -9 25 -5 6 4 17 1 25 -5 8 -6 29 -10 47 -9 24 2 40 -3 56 -19
23 -23 62 -25 92 -7 6 4 17 -1 24 -10 10 -15 16 -16 35 -6 17 10 26 10 37 1 7
-7 20 -10 29 -7 8 4 17 2 19 -2 10 -15 56 -10 56 6 0 12 3 13 14 4 7 -6 20 -9
29 -5 8 3 18 1 21 -5 4 -6 20 -8 35 -5 16 3 38 1 50 -5 24 -13 28 0 6 19 -8 7
-12 16 -9 21 3 5 16 -3 30 -18 21 -23 27 -25 35 -13 7 11 11 12 17 3 10 -16
52 -12 52 4 0 7 5 13 10 13 6 0 10 -5 10 -10 0 -13 51 -2 65 14 17 18 38 19
31 1 -4 -12 -1 -15 12 -13 9 2 17 11 16 19 -1 8 7 16 18 16 10 1 16 -2 13 -7
-3 -5 -1 -11 5 -15 5 -3 10 0 10 7 0 7 13 14 31 15 17 1 36 6 43 11 18 15 56
21 62 10 3 -5 16 0 30 13 13 12 27 20 30 16 4 -3 22 0 41 8 20 8 44 15 54 15
12 0 16 5 13 15 -5 13 -3 13 22 0 30 -15 54 -6 54 21 0 17 17 18 24 2 3 -9 9
-8 20 6 8 10 19 15 25 12 5 -4 30 5 54 18 24 14 47 22 51 19 3 -4 6 1 6 11 0
10 5 14 11 10 6 -3 14 -2 18 4 4 7 17 13 29 15 12 2 30 13 40 25 11 12 24 22
31 22 6 0 11 6 11 13 0 7 22 34 50 60 28 26 50 52 50 58 0 5 11 14 25 19 14 5
30 22 36 36 5 15 23 41 39 57 17 17 30 37 30 44 0 8 9 23 20 35 11 12 20 30
20 40 0 10 6 18 14 18 8 0 20 16 26 35 6 19 15 35 19 35 4 0 14 22 21 50 7 27
17 50 22 50 4 0 8 11 8 24 0 13 6 29 14 35 15 12 16 20 18 79 0 17 4 32 8 32
8 0 21 103 25 185 1 22 2 53 3 69 l2 30 29 -28 c16 -16 34 -25 39 -22 5 3 15
-1 22 -10 7 -8 20 -12 28 -9 8 3 21 0 29 -7 18 -15 111 -19 136 -6 10 5 14 14
11 20 -5 7 -1 9 9 5 10 -4 17 -1 17 6 0 7 7 4 14 -6 14 -18 15 -18 25 0 10 17
10 17 11 1 0 -10 5 -18 10 -18 6 0 10 5 10 10 0 6 14 10 30 10 19 0 30 5 30
14 0 17 27 29 32 14 5 -15 68 53 68 74 0 9 9 19 19 23 12 4 19 15 20 33 0 15
0 37 1 50 0 12 5 22 11 22 5 0 7 5 3 11 -4 7 -8 69 -9 138 -3 151 -21 268 -47
297 -10 11 -18 26 -18 32 0 7 -4 12 -10 12 -5 0 -10 9 -10 20 0 13 -7 20 -19
20 -10 0 -31 16 -47 35 -15 19 -34 35 -41 35 -7 0 -13 8 -13 17 0 9 -3 13 -6
10 -6 -6 -37 16 -97 68 -13 12 -22 13 -37 5 -12 -7 -21 -7 -25 0 -9 14 -68 13
-83 -2 -7 -7 -12 -9 -12 -4 0 4 -13 -1 -30 -11 -23 -13 -33 -14 -42 -5 -15 15
-19 61 -7 85 12 21 10 309 -1 337 -6 14 -4 36 4 48 5 7 3 18 -5 28 -10 13 -10
17 0 24 9 5 10 10 3 14 -6 4 -9 22 -7 41 4 25 1 35 -9 35 -8 0 -17 7 -20 16
-4 12 -2 15 9 10 19 -7 20 8 2 26 -8 7 -15 27 -16 43 -1 17 -3 41 -6 55 -2 14
-4 31 -4 38 -1 6 -11 22 -22 33 -17 17 -19 23 -8 30 11 6 11 11 1 21 -9 9 -12
9 -12 0 0 -7 -5 -12 -11 -12 -8 0 -7 5 2 16 11 14 11 18 -4 29 -10 7 -15 19
-12 26 6 18 -21 53 -34 44 -7 -3 -11 2 -11 14 0 12 -6 21 -14 21 -8 0 -13 8
-12 18 0 9 -5 16 -12 14 -7 -1 -16 6 -19 15 -8 23 -29 39 -70 58 -18 7 -42 22
-53 33 -11 10 -33 25 -48 33 -15 8 -29 16 -32 20 -3 3 -22 13 -42 22 -21 10
-38 22 -38 27 0 6 -9 10 -19 10 -11 0 -22 4 -26 9 -3 5 -19 12 -35 16 -17 4
-30 10 -30 15 0 5 -10 12 -22 16 -13 4 -45 17 -73 30 -89 40 -260 92 -321 97
-23 2 -45 6 -50 9 -12 7 -58 16 -113 23 -24 3 -64 12 -88 20 -24 8 -57 15 -73
15 -16 0 -31 4 -35 9 -3 6 -13 10 -23 9 -26 0 -93 11 -104 18 -5 3 -37 8 -71
11 -34 3 -68 9 -74 15 -9 7 -17 7 -26 -1 -8 -6 -17 -8 -20 -5 -10 10 -163 11
-189 1z m1017 -417 c-3 -5 -11 -10 -16 -10 -6 0 -7 5 -4 10 3 6 11 10 16 10 6
0 7 -4 4 -10z m461 -324 c3 -8 17 -16 32 -20 29 -6 88 -79 77 -95 -3 -5 0 -13
5 -16 12 -8 34 -55 32 -68 -1 -4 5 -10 13 -13 9 -4 13 -13 10 -24 -3 -9 1 -23
10 -30 8 -7 13 -15 11 -19 -3 -4 4 -38 15 -76 10 -38 19 -87 19 -108 0 -21 4
-46 9 -55 5 -10 12 -46 14 -81 3 -35 10 -68 15 -73 6 -6 8 -17 5 -24 -3 -8 0
-14 6 -14 6 0 11 -7 11 -15 0 -8 4 -15 8 -15 14 0 31 -60 28 -100 -2 -22 1
-40 5 -40 5 0 9 -7 9 -15 0 -8 -7 -15 -15 -15 -7 0 -18 -6 -22 -12 -4 -7 -17
-18 -28 -24 -11 -6 -27 -24 -35 -40 -9 -16 -34 -37 -55 -48 -38 -18 -40 -18
-74 0 -19 10 -45 17 -59 15 -14 -1 -29 3 -33 11 -7 10 -9 10 -9 1 0 -7 -4 -13
-10 -13 -5 0 -10 6 -10 14 0 7 -9 16 -20 19 -13 3 -20 0 -20 -9 0 -8 -7 -14
-16 -14 -10 0 -14 6 -10 15 6 17 -9 21 -19 5 -5 -8 -11 -8 -20 0 -10 9 -20 7
-40 -6 -22 -14 -28 -15 -35 -4 -7 12 -13 12 -33 1 -14 -7 -30 -10 -36 -7 -6 4
-11 2 -11 -4 0 -7 -25 -9 -81 -4 -46 3 -79 3 -76 -2 3 -5 -15 -7 -39 -5 -29 2
-44 -1 -44 -8 0 -8 -5 -9 -16 -3 -22 12 -64 3 -64 -14 0 -8 -7 -17 -15 -20 -8
-4 -15 -12 -15 -20 0 -8 -4 -14 -10 -14 -5 0 -7 -6 -4 -13 6 -17 -31 -16 -48
1 -7 7 -26 12 -44 12 -18 0 -34 5 -36 11 -2 7 -12 7 -32 -1 -16 -6 -32 -7 -35
-3 -10 13 -51 9 -61 -6 -7 -12 -12 -12 -23 -3 -11 10 -17 9 -27 -4 -8 -9 -22
-13 -33 -10 -20 5 -90 -25 -102 -44 -10 -17 -48 -12 -41 5 4 11 -3 19 -19 25
-14 5 -25 13 -25 18 0 14 -142 47 -154 35 -8 -8 -142 -7 -155 1 -5 4 -12 2
-16 -4 -4 -6 -12 -7 -18 -3 -17 10 -87 11 -93 1 -3 -5 -12 -4 -20 3 -9 8 -18
8 -26 1 -14 -11 -137 -10 -155 1 -6 4 -14 3 -17 -1 -3 -5 -29 -7 -58 -5 -110
9 -126 5 -124 -32 0 -16 5 -33 10 -36 15 -11 -2 -39 -23 -39 -10 0 -21 7 -25
15 -3 8 -15 15 -26 15 -11 0 -20 4 -20 9 0 5 -8 12 -17 15 -10 3 -34 19 -53
36 -19 16 -39 30 -43 30 -5 0 -22 14 -39 30 -16 17 -34 28 -39 24 -5 -3 -9 2
-9 10 0 9 -9 16 -20 16 -11 0 -20 7 -20 15 0 8 -5 15 -11 15 -7 0 -21 10 -33
23 -11 12 -26 22 -33 22 -6 0 -24 12 -40 26 -16 14 -34 24 -41 21 -9 -3 -9 4
-1 27 6 17 17 31 24 31 8 0 17 9 20 20 3 11 11 20 17 20 5 0 8 5 6 12 -2 6 9
24 26 40 27 26 44 50 62 88 8 17 82 118 101 138 6 6 16 12 21 12 5 0 13 11 16
25 4 14 12 25 19 25 7 0 18 9 25 20 12 21 13 21 40 2 23 -16 31 -17 51 -6 14
7 29 10 35 7 5 -4 1 -10 -10 -14 -13 -5 -7 -7 19 -7 22 1 41 7 44 13 3 9 15
10 39 5 29 -7 34 -5 34 11 0 10 5 19 11 19 5 0 7 -6 4 -12 -4 -7 -1 -6 7 3 7
9 30 22 52 29 25 8 34 15 26 20 -9 5 -6 10 11 15 27 9 42 23 52 48 7 18 27 24
27 7 0 -5 8 -6 17 -3 12 5 15 2 10 -10 -3 -9 -2 -17 3 -17 6 0 10 -11 10 -25
0 -45 96 -116 115 -85 5 8 11 8 20 0 12 -10 43 -4 55 9 11 14 61 30 75 25 8
-4 15 -2 15 4 0 6 9 8 20 5 11 -3 28 -2 37 2 17 7 17 8 -2 16 -18 8 -17 9 4 5
17 -4 30 2 43 20 11 13 24 22 29 19 5 -4 20 5 34 19 14 15 32 26 40 26 8 0 15
5 15 10 0 23 21 7 27 -20 4 -23 11 -30 29 -30 12 0 35 -5 50 -10 15 -6 30 -7
33 -3 3 4 22 9 41 10 19 2 58 5 85 8 28 4 64 7 80 9 17 1 51 12 77 24 26 12
49 22 52 22 3 0 25 14 49 30 25 17 47 30 50 30 4 0 17 11 31 25 32 31 42 31
50 0 16 -62 120 -77 216 -31 107 52 126 65 190 134 64 69 95 86 106 58z
m-1566 -227 c0 -6 -4 -7 -10 -4 -5 3 -10 11 -10 16 0 6 5 7 10 4 6 -3 10 -11
10 -16z m-15 -29 c3 -5 1 -10 -4 -10 -6 0 -11 5 -11 10 0 6 2 10 4 10 3 0 8
-4 11 -10z m-1055 -34 c0 -3 -4 -8 -10 -11 -5 -3 -10 -1 -10 4 0 6 5 11 10 11
6 0 10 -2 10 -4z m10 -290 c0 -3 -4 -8 -10 -11 -5 -3 -10 -1 -10 4 0 6 5 11
10 11 6 0 10 -2 10 -4z m3140 -326 c0 -5 -4 -10 -10 -10 -5 0 -10 5 -10 10 0
6 5 10 10 10 6 0 10 -4 10 -10z m41 -3 c-9 -11 -2 -14 36 -13 29 1 48 -4 50
-11 3 -7 13 -13 24 -13 10 0 19 -7 19 -15 0 -8 6 -15 13 -15 7 0 18 -9 25 -20
7 -11 18 -20 25 -20 13 0 77 -63 77 -75 0 -4 7 -13 15 -22 8 -8 13 -19 9 -24
-3 -6 -1 -15 4 -22 9 -11 11 -23 12 -99 1 -16 5 -28 9 -28 5 0 6 -20 3 -45 -3
-32 -1 -45 8 -45 9 0 9 -4 2 -12 -17 -22 -18 -78 -2 -88 10 -7 11 -10 3 -10
-8 0 -13 -13 -13 -30 0 -16 -4 -30 -10 -30 -5 0 -10 -8 -10 -17 -1 -42 -86
-93 -155 -93 -13 0 -26 -6 -28 -12 -4 -10 -7 -10 -14 -1 -7 9 -17 9 -46 -1
-20 -7 -40 -15 -43 -19 -13 -13 -26 -7 -20 8 7 18 -20 21 -27 3 -4 -10 -8 -10
-14 -2 -11 16 -81 54 -98 54 -8 0 -15 5 -15 11 0 7 -8 19 -19 28 -11 10 -18
28 -17 46 1 17 -3 36 -8 43 -12 17 -45 15 -52 -3 -4 -8 -12 -15 -19 -15 -9 0
-12 -14 -8 -52 7 -92 3 -301 -7 -318 -2 -5 -7 -35 -13 -82 -1 -13 -6 -29 -10
-35 -5 -7 -6 -17 -2 -22 3 -5 1 -12 -5 -16 -5 -3 -10 -17 -10 -29 0 -13 -9
-35 -20 -48 -10 -14 -16 -29 -12 -32 4 -4 -1 -14 -11 -21 -13 -9 -17 -20 -12
-34 5 -17 2 -21 -15 -21 -16 0 -20 -4 -16 -15 3 -9 -2 -20 -13 -27 -11 -6 -17
-17 -14 -24 2 -6 -7 -23 -21 -37 -14 -15 -26 -31 -26 -38 0 -6 -27 -39 -59
-73 -33 -33 -90 -94 -127 -133 -69 -74 -94 -89 -94 -53 0 11 -7 20 -15 20 -8
0 -15 7 -15 15 0 27 -28 16 -39 -15 -5 -16 -7 -30 -4 -30 3 0 0 -6 -6 -14 -9
-11 -9 -15 0 -18 30 -10 -41 -74 -75 -69 -4 1 -14 -3 -20 -8 -7 -6 -21 -12
-32 -14 -10 -2 -26 -7 -34 -10 -8 -3 -31 -8 -52 -11 -20 -3 -49 -11 -65 -17
-15 -6 -37 -15 -48 -20 -11 -4 -44 -13 -73 -19 -28 -7 -54 -16 -57 -21 -3 -4
-12 -6 -19 -3 -8 3 -36 -1 -63 -9 -28 -8 -55 -12 -62 -8 -15 9 -71 2 -71 -10
0 -4 -24 -8 -52 -9 -29 0 -87 -2 -128 -4 -41 -2 -80 1 -87 6 -7 6 -14 5 -18
-2 -5 -8 -10 -8 -20 0 -9 8 -15 8 -20 0 -10 -16 -25 -12 -25 8 0 10 -3 13 -8
6 -8 -12 -61 -12 -81 0 -6 4 -19 2 -27 -5 -11 -9 -18 -8 -34 6 -11 10 -26 15
-36 11 -10 -4 -25 1 -36 10 -10 10 -21 14 -25 11 -3 -4 -12 -2 -20 5 -10 8
-17 8 -25 0 -9 -9 -8 -12 5 -12 9 0 17 -4 17 -10 0 -14 -7 -13 -35 6 -14 9
-30 12 -37 8 -10 -6 -9 -3 1 9 12 15 11 17 -8 17 -15 0 -20 -4 -15 -12 4 -7
-3 -4 -16 7 -13 11 -20 14 -16 8 5 -8 1 -13 -9 -13 -12 0 -15 5 -11 16 3 9 6
20 6 25 0 6 8 9 17 7 25 -4 27 25 3 55 -20 26 -49 39 -35 16 4 -5 -1 -19 -10
-29 -11 -12 -14 -26 -10 -39 10 -32 -3 -43 -26 -20 -13 13 -27 18 -39 14 -11
-4 -25 -3 -32 2 -7 4 -20 8 -28 8 -8 0 -15 9 -15 20 0 14 -11 22 -40 30 -24 6
-40 16 -40 25 0 10 -8 14 -27 12 -14 -2 -29 2 -33 7 -3 6 -14 11 -25 11 -20 0
-38 32 -21 38 6 2 8 8 5 14 -4 6 0 14 7 19 12 8 12 11 -1 18 -8 6 -11 13 -7
17 3 4 -1 19 -10 35 -16 26 -18 27 -45 13 -22 -11 -28 -22 -28 -46 0 -30 0
-31 -20 -13 -11 10 -20 24 -20 32 0 7 -7 16 -16 20 -15 6 -39 50 -36 66 1 4
-5 10 -13 13 -10 4 -13 13 -9 26 4 14 3 18 -6 13 -7 -5 -11 -1 -10 11 3 26
-10 64 -22 64 -6 0 -8 6 -5 14 3 8 -6 37 -19 65 -16 32 -27 72 -29 108 -1 31
-8 59 -14 61 -8 3 -9 8 -2 16 6 8 6 27 0 56 -5 24 -8 49 -5 56 3 7 -2 15 -11
18 -13 5 -13 9 -2 22 9 11 10 17 1 23 -6 4 -9 20 -6 39 3 20 1 32 -6 32 -6 0
-9 8 -6 18 4 10 8 51 10 90 3 58 1 72 -11 72 -8 0 -12 4 -8 9 3 5 1 12 -4 16
-6 3 -15 -4 -21 -15 -7 -13 -21 -20 -38 -20 -15 0 -43 -13 -62 -28 -19 -16
-43 -31 -52 -35 -10 -3 -18 -17 -18 -29 0 -19 -2 -20 -10 -8 -7 11 -10 11 -10
2 0 -7 -8 -12 -17 -10 -12 2 -18 -3 -17 -14 2 -20 -7 -23 -22 -8 -6 6 -21 6
-41 1 -21 -6 -35 -5 -43 2 -10 9 -11 7 -5 -10 7 -26 -12 -33 -21 -8 -4 9 -13
13 -23 10 -10 -3 -27 4 -39 15 -12 12 -27 18 -32 15 -6 -3 -10 -1 -10 4 0 6
-13 23 -29 38 -38 38 -49 61 -57 124 -9 81 -6 249 5 288 6 19 8 38 5 43 -3 5
2 20 11 34 9 13 13 29 10 34 -3 6 -2 10 4 10 5 0 20 17 32 38 29 47 109 121
132 122 9 0 17 6 17 14 0 26 95 39 123 17 11 -9 17 -10 17 -3 0 7 11 12 25 12
14 0 25 5 25 10 0 6 7 10 15 10 8 0 15 6 15 14 0 19 52 8 68 -16 7 -10 19 -18
27 -18 12 0 40 -20 131 -94 18 -15 37 -26 42 -26 6 0 15 -6 19 -13 4 -8 22
-22 38 -33 17 -10 35 -23 41 -29 7 -5 33 -23 60 -40 26 -16 59 -38 73 -48 14
-9 34 -20 44 -23 13 -5 15 -10 7 -20 -8 -9 -8 -19 0 -35 10 -17 9 -23 -1 -30
-10 -6 -10 -10 0 -23 15 -18 20 -105 7 -109 -6 -2 -6 -11 -1 -23 4 -10 10 -28
12 -39 2 -11 10 -25 19 -32 9 -6 13 -17 9 -22 -3 -6 2 -14 12 -18 10 -4 21
-11 25 -16 3 -6 19 -12 35 -14 61 -7 68 -8 81 -17 7 -4 16 -6 18 -3 3 3 27 -1
55 -8 27 -7 49 -9 49 -4 0 5 12 7 28 5 49 -8 118 -10 128 -3 6 3 26 2 44 -3
19 -5 36 -8 38 -5 3 3 10 1 16 -4 22 -18 159 -20 196 -4 19 9 38 15 43 15 4
-1 7 5 7 13 0 8 3 15 8 15 11 0 32 51 32 77 0 13 4 23 9 23 5 0 8 16 7 35 -2
20 0 38 5 40 4 3 7 13 7 23 -2 29 13 206 19 230 7 27 20 29 28 2 9 -28 45 -26
45 3 0 18 2 19 10 7 9 -13 12 -13 21 3 7 12 20 17 37 15 21 -2 27 1 26 15 -1
9 2 17 7 17 5 0 9 -7 9 -15 0 -19 9 -19 32 2 14 13 18 13 18 2 0 -11 2 -11 10
1 8 12 11 13 19 1 6 -9 11 -10 15 -2 8 13 85 6 99 -8 5 -5 15 -7 21 -5 6 2 29
-2 50 -9 37 -13 38 -14 20 -31 -17 -17 -17 -19 0 -28 16 -9 16 -10 -1 -24 -10
-7 -13 -14 -8 -14 14 0 15 -63 1 -72 -7 -5 -7 -8 3 -8 10 0 12 -9 7 -34 -4
-20 -2 -36 4 -38 5 -1 11 -16 12 -33 1 -16 6 -36 12 -43 7 -9 6 -16 -3 -22
-17 -10 2 -22 23 -14 11 4 16 1 16 -10 0 -9 -4 -16 -10 -16 -5 0 -10 -4 -10
-10 0 -5 7 -10 15 -10 8 0 15 -7 15 -15 0 -9 9 -15 25 -15 14 0 25 -5 25 -10
0 -7 7 -7 20 0 12 7 26 7 36 2 8 -5 35 -6 59 -2 24 4 50 3 57 -1 7 -5 30 -6
50 -4 20 3 40 0 43 -5 6 -9 109 -5 143 5 6 3 12 1 12 -3 0 -9 136 -9 146 1 4
4 16 7 26 7 13 0 18 7 18 26 0 16 5 24 12 22 16 -6 48 34 48 59 0 10 6 30 14
45 8 15 11 29 8 32 -3 4 -7 39 -8 79 -1 39 -3 72 -4 72 -1 0 -4 20 -6 45 -2
25 -6 62 -9 82 -5 33 -2 39 23 52 16 8 34 22 41 30 8 9 21 16 30 16 10 0 35
16 57 35 21 19 44 35 49 35 12 0 65 65 65 79 0 6 7 8 15 5 8 -4 15 -1 15 5 0
6 7 11 15 11 8 0 15 7 15 16 0 13 3 14 15 4 17 -14 50 -6 40 10 -3 6 4 10 16
10 17 0 19 -3 10 -13z m-669 -192 c35 1 67 0 73 -4 5 -3 16 -6 25 -7 26 -4 63
-13 67 -17 2 -3 6 -33 9 -68 9 -115 12 -134 19 -152 4 -10 5 -20 2 -23 -3 -4
-1 -17 4 -31 5 -15 6 -31 0 -41 -6 -10 -6 -23 0 -33 6 -12 4 -21 -6 -29 -26
-21 -16 -80 14 -80 14 0 14 -2 1 -10 -8 -5 -17 -5 -20 0 -7 11 -83 9 -91 -3
-4 -6 -12 -6 -20 -1 -8 5 -57 9 -109 9 -52 1 -106 5 -119 9 -16 6 -21 5 -17
-3 4 -6 3 -11 -3 -11 -5 0 -15 8 -20 18 -6 9 -11 11 -11 5 0 -16 -32 -17 -48
-1 -9 9 -12 8 -12 -7 0 -17 -1 -17 -19 -1 -10 10 -22 13 -25 8 -9 -15 -67 -1
-79 19 -7 11 -17 19 -24 19 -17 0 -17 17 0 23 9 3 7 9 -5 24 -14 15 -15 22 -5
32 9 10 8 15 -6 26 -14 10 -15 14 -5 19 10 5 10 7 1 12 -15 7 -17 34 -3 34 15
0 12 37 -3 52 -12 10 -12 15 1 27 12 13 12 16 -2 26 -9 7 -16 21 -16 31 0 16
2 17 10 4 7 -11 10 -7 10 18 0 17 -3 31 -7 30 -5 -2 -9 2 -11 7 -1 6 7 12 19
13 18 3 19 6 8 13 -12 8 -12 10 1 19 11 7 18 5 26 -5 14 -19 24 -19 24 0 0 9
6 12 15 9 8 -4 15 -2 15 3 0 5 16 10 35 11 29 2 34 0 28 -15 -6 -16 -5 -16 10
-4 14 11 20 11 32 1 9 -8 15 -8 15 -2 0 6 -6 12 -12 15 -7 2 -10 8 -6 12 4 4
13 3 20 -1 18 -12 69 -14 62 -3 -3 5 2 9 11 9 9 0 13 -4 10 -10 -3 -5 0 -10 9
-10 29 0 46 12 47 34 l0 21 9 -21 c7 -19 15 -21 72 -19z m43 15 c3 -5 1 -10
-4 -10 -6 0 -11 5 -11 10 0 6 2 10 4 10 3 0 8 -4 11 -10z m-1127 -91 c36 -2
42 -14 11 -24 -16 -5 -18 -9 -9 -15 8 -5 10 -15 6 -26 -4 -10 -9 -55 -11 -101
-2 -47 -9 -90 -15 -97 -8 -10 -6 -15 6 -20 15 -6 15 -8 -1 -26 -10 -11 -15
-26 -12 -34 4 -9 -1 -20 -10 -25 -14 -7 -15 -12 -5 -24 11 -12 6 -20 -29 -48
-40 -32 -43 -32 -93 -22 -37 8 -53 8 -58 -1 -5 -7 -8 -4 -8 7 0 11 -4 15 -12
11 -16 -10 -68 -13 -62 -3 8 13 -36 21 -51 9 -8 -6 -19 -9 -25 -5 -6 4 -24 11
-41 15 -25 7 -30 6 -25 -5 3 -10 0 -14 -12 -11 -9 2 -36 7 -59 11 -24 4 -43
13 -43 19 0 6 -7 2 -16 -9 -12 -16 -16 -17 -23 -6 -5 8 -16 11 -26 7 -12 -4
-16 -2 -12 8 3 8 -1 17 -9 20 -9 3 -12 1 -9 -4 3 -6 -5 -10 -19 -10 -18 0 -26
5 -26 18 0 10 -5 23 -12 30 -12 12 -21 122 -19 259 1 68 -2 84 -16 92 -12 6
29 9 126 10 79 0 145 2 147 4 3 3 355 0 472 -4z m562 -20 c0 -4 -7 -6 -15 -3
-8 4 -15 10 -15 15 0 4 7 6 15 3 8 -4 15 -10 15 -15z m-1763 -841 c-3 -8 -6
-5 -6 6 -1 11 2 17 5 13 3 -3 4 -12 1 -19z m285 -602 c4 -17 1 -23 -9 -19 -14
5 -17 25 -6 36 9 10 10 9 15 -17z"/>
<path d="M3710 2900 c0 -5 7 -10 16 -10 8 0 12 5 9 10 -3 6 -10 10 -16 10 -5
0 -9 -4 -9 -10z"/>
<path d="M4487 2740 c4 -15 0 -20 -15 -20 -26 0 -45 -24 -46 -60 -1 -26 3 -29
46 -38 50 -10 64 0 51 34 -5 13 -2 15 18 8 13 -4 36 -7 52 -6 15 0 27 -3 27
-7 0 -5 10 -11 21 -14 15 -4 20 -11 15 -22 -3 -9 -6 -23 -6 -30 0 -8 -9 -17
-20 -20 -11 -3 -20 -13 -20 -21 0 -8 -8 -14 -19 -14 -15 0 -18 -6 -16 -30 1
-17 5 -33 8 -36 8 -8 70 -12 82 -5 6 3 12 6 15 6 20 3 50 18 50 26 0 5 -4 8
-9 6 -5 -1 -10 3 -11 8 0 6 9 12 22 15 16 4 19 8 10 14 -17 10 -15 29 3 22 16
-6 21 9 6 18 -4 3 -6 17 -3 31 2 15 0 25 -7 25 -6 0 -11 8 -11 18 -1 19 -44
72 -59 72 -5 0 -22 5 -38 11 -22 8 -25 12 -13 20 12 8 11 9 -5 5 -34 -8 -104
-11 -111 -3 -14 13 -22 7 -17 -13z"/>
<path d="M1396 2703 c-11 -3 -26 -11 -34 -19 -7 -8 -19 -14 -26 -14 -28 0 -72
-31 -84 -60 -8 -16 -18 -28 -23 -24 -12 7 -11 -3 2 -27 7 -14 7 -24 0 -33 -20
-24 9 -116 36 -116 8 0 12 -4 9 -9 -5 -8 72 -38 87 -33 4 1 7 -5 7 -13 0 -19
11 -19 54 3 20 9 36 24 36 33 0 9 7 19 15 23 8 3 15 10 15 16 0 6 -4 8 -10 5
-5 -3 -10 0 -10 8 0 18 -45 31 -66 19 -17 -10 -80 15 -88 35 -6 14 7 63 17 63
4 0 14 0 23 0 9 0 21 13 27 29 10 28 12 29 64 24 43 -5 54 -3 59 11 3 9 12 16
20 16 19 0 17 20 -3 36 -11 8 -13 13 -5 14 6 0 12 5 12 10 0 10 -98 12 -134 3z
m10 -340 c-10 -10 -19 5 -10 18 6 11 8 11 12 0 2 -7 1 -15 -2 -18z"/>
<path d="M3181 2492 c-17 -31 -9 -65 25 -105 34 -41 52 -114 36 -143 -5 -9 -7
-25 -5 -35 4 -13 0 -19 -11 -19 -9 0 -19 -7 -22 -15 -4 -8 -12 -15 -19 -15 -7
0 -18 -7 -26 -16 -10 -13 -10 -20 3 -42 8 -15 13 -33 11 -39 -7 -20 14 -15 36
8 11 12 24 18 30 14 6 -3 11 -3 11 2 0 8 35 53 66 85 10 11 15 27 12 43 -3 14
-1 25 3 25 11 0 12 34 2 43 -3 4 -7 24 -8 44 -1 21 -12 59 -24 85 -11 26 -21
52 -21 58 0 6 -4 8 -10 5 -5 -3 -10 3 -10 14 0 17 -6 21 -35 21 -23 0 -37 -6
-44 -18z"/>
<path d="M4245 2181 c-3 -6 -15 -11 -26 -11 -14 0 -19 -7 -19 -29 0 -45 20
-93 37 -87 8 3 19 6 24 6 5 0 9 7 9 15 0 8 4 15 9 15 5 0 11 9 14 20 3 11 1
20 -3 20 -5 0 -10 12 -12 27 -3 28 -22 41 -33 24z"/>
<path d="M4016 2101 c-4 -7 -13 -10 -20 -8 -6 3 -21 -2 -31 -10 -14 -11 -16
-17 -7 -20 6 -3 12 -16 12 -29 0 -14 7 -27 15 -30 8 -4 15 -12 15 -19 0 -21
27 -25 44 -6 20 21 21 87 2 98 -7 4 -15 15 -18 23 -3 11 -6 11 -12 1z"/>
<path d="M4170 2050 c0 -11 -6 -23 -14 -26 -20 -8 -31 -61 -16 -79 6 -8 8 -20
4 -26 -5 -9 -2 -10 10 -6 10 4 27 7 37 7 11 0 18 4 14 9 -3 5 -1 12 4 15 11 7
7 52 -9 94 -13 36 -30 43 -30 12z"/>
<path d="M1735 2010 c-3 -11 -10 -20 -15 -20 -5 0 -7 8 -3 18 3 10 2 14 -3 9
-15 -14 -21 -137 -7 -137 7 0 17 -8 22 -17 10 -17 12 -16 31 7 11 14 18 31 15
37 -2 7 3 16 12 21 14 8 14 10 -1 15 -13 5 -15 11 -6 27 8 15 6 24 -7 40 -22
25 -30 25 -38 0z"/>
<path d="M3694 2015 c3 -8 0 -15 -6 -15 -6 0 -8 -11 -4 -31 5 -28 4 -30 -10
-18 -16 13 -104 20 -104 7 0 -4 -10 -6 -22 -6 -53 3 -78 -2 -78 -17 0 -19 -19
-19 -26 0 -4 8 -10 12 -15 9 -5 -3 -7 -10 -3 -15 3 -6 -22 -9 -66 -8 -40 1
-75 -2 -79 -7 -3 -5 -26 -9 -51 -9 -25 1 -49 -2 -55 -6 -5 -4 -21 -7 -35 -8
-46 -1 -65 -6 -73 -19 -5 -7 -13 -10 -18 -6 -5 3 -16 0 -24 -6 -11 -9 -19 -9
-28 -2 -7 7 -34 9 -63 6 -27 -3 -74 -6 -104 -8 -30 -2 -55 -5 -55 -6 0 -1 -9
-3 -20 -4 -11 -2 -30 -6 -43 -10 -14 -5 -29 -3 -37 4 -12 10 -15 10 -15 1 0
-7 -5 -9 -11 -5 -23 14 -80 13 -85 -1 -3 -8 -13 -11 -22 -8 -12 5 -14 2 -8
-12 4 -10 2 -21 -5 -25 -8 -6 -8 -13 1 -30 7 -12 10 -35 8 -51 -3 -17 1 -30 8
-33 8 -3 16 -17 20 -31 4 -18 11 -24 21 -20 11 4 13 1 9 -10 -3 -9 -2 -13 4
-10 6 3 13 -1 16 -9 3 -9 12 -16 18 -16 7 0 18 -10 23 -22 12 -25 109 -82 124
-72 5 3 12 -2 15 -11 5 -11 10 -13 19 -5 10 8 15 6 19 -8 6 -19 32 -26 146
-39 54 -6 295 0 295 7 0 1 8 3 18 5 10 2 29 10 42 19 13 9 31 16 40 16 8 0 15
4 15 9 0 5 12 11 28 14 15 3 38 15 52 27 13 12 39 28 58 37 21 10 31 21 28 30
-3 8 -1 11 4 8 6 -3 10 -1 10 4 0 6 9 11 20 11 13 0 20 7 20 19 0 10 6 21 14
24 8 3 20 24 27 46 13 45 29 54 29 18 0 -31 27 -67 46 -60 28 11 42 66 35 136
-1 4 -8 7 -17 7 -9 0 -12 -5 -8 -12 5 -8 0 -9 -15 -5 -14 3 -24 0 -28 -9 -3
-8 -9 -14 -15 -14 -5 0 -6 5 -2 12 8 12 15 52 15 80 0 10 5 20 10 24 6 4 4 13
-6 24 -15 17 -14 18 16 29 17 6 35 8 41 5 5 -3 7 12 4 37 -5 44 -18 59 -50 59
-12 0 -16 -5 -12 -15z m-106 -154 c10 -5 19 -23 20 -41 2 -22 -1 -29 -9 -24
-8 5 -9 3 -4 -5 4 -7 -2 -22 -14 -35 -13 -14 -19 -29 -15 -39 3 -10 2 -17 -3
-17 -5 0 -24 -14 -43 -32 -19 -18 -38 -31 -42 -30 -4 1 -12 -7 -18 -18 -6 -11
-19 -20 -29 -20 -11 0 -21 -7 -25 -15 -3 -8 -15 -15 -28 -15 -12 0 -32 -12
-45 -27 -19 -24 -22 -25 -23 -9 0 15 -3 16 -15 6 -8 -7 -15 -9 -15 -5 0 4 -6
2 -13 -4 -8 -6 -17 -8 -20 -4 -4 3 -7 1 -7 -5 0 -8 -11 -9 -31 -5 -20 4 -34 1
-39 -7 -5 -8 -13 -9 -21 -4 -8 5 -31 10 -51 11 -30 2 -38 -1 -38 -14 0 -14 -2
-14 -17 -1 -11 9 -36 14 -62 14 -27 -1 -45 3 -48 11 -4 10 -9 10 -18 3 -9 -7
-16 -6 -25 5 -7 9 -21 13 -31 10 -14 -5 -17 -2 -13 9 4 11 0 13 -14 9 -15 -3
-22 1 -27 17 -5 16 -9 19 -15 10 -10 -17 -31 -3 -28 18 2 11 -5 18 -19 20 -13
2 -23 -1 -23 -7 0 -8 -6 -8 -19 0 -10 7 -16 20 -14 29 3 10 -5 23 -20 33 -14
9 -29 29 -35 45 l-10 30 61 -3 c34 -2 64 -4 67 -5 3 -1 10 -1 15 0 27 7 64 11
100 12 22 0 45 4 50 7 6 4 48 7 95 6 60 -1 99 4 133 17 26 10 51 17 55 17 4
-1 9 -1 12 0 3 1 22 4 44 6 181 19 241 28 273 40 21 7 39 14 41 14 2 1 11 -3
20 -8z"/>
<path d="M2458 1999 c-22 -12 -24 -62 -3 -79 8 -7 15 -19 15 -27 0 -11 6 -11
30 4 33 19 38 43 18 86 -14 28 -31 33 -60 16z"/>
<path d="M3920 1977 c0 -8 -8 -21 -18 -31 -15 -13 -18 -27 -15 -73 5 -60 18
-97 33 -88 5 3 11 1 15 -5 11 -18 25 -11 25 14 0 13 7 29 15 36 8 7 12 17 8
24 -4 6 -6 19 -5 29 2 9 -2 17 -8 17 -7 0 -9 8 -5 19 3 10 -1 24 -10 31 -8 7
-15 19 -15 26 0 8 -4 14 -10 14 -5 0 -10 -6 -10 -13z"/>
<path d="M1929 1966 c0 0 -2 -11 -3 -22 -1 -12 -10 -29 -19 -39 -22 -21 -21
-31 1 -44 9 -6 13 -11 7 -11 -5 0 5 -7 23 -15 46 -20 72 -6 72 40 0 19 -4 35
-10 35 -5 0 -10 7 -10 16 0 8 5 12 10 9 6 -3 10 -2 10 4 0 14 -21 25 -52 27
-16 1 -28 1 -29 0z"/>
<path d="M2153 1914 c-3 -11 -11 -22 -17 -26 -6 -4 -5 -12 3 -22 11 -13 11
-19 0 -33 -11 -13 -11 -17 -1 -20 6 -3 12 -11 12 -19 0 -9 5 -12 10 -9 6 4 17
1 25 -5 11 -9 15 -9 15 -1 0 6 6 11 13 11 8 0 12 18 12 59 0 67 0 67 -37 76
-22 6 -29 3 -35 -11z"/>
<path d="M2308 1825 c-4 -4 -4 -13 -2 -20 3 -7 1 -16 -5 -20 -6 -3 -11 -15
-11 -26 0 -10 -5 -19 -12 -19 -9 0 -9 -3 0 -12 7 -7 12 -27 12 -46 0 -26 3
-33 15 -28 9 3 15 0 15 -9 0 -26 21 -16 35 18 20 49 29 107 16 107 -13 0 -47
32 -52 49 -3 7 -7 9 -11 6z"/>
<path d="M4089 1802 c-21 -23 -44 -115 -30 -120 6 -2 11 -11 11 -19 0 -10 6
-13 16 -9 9 3 19 6 24 6 4 0 15 20 23 44 14 40 14 48 -1 80 -19 40 -21 41 -43
18z"/>
<path d="M1860 1655 c-6 -19 -8 -45 -4 -57 8 -23 9 -30 12 -55 3 -22 22 -14
34 12 8 19 14 22 20 13 14 -22 26 9 22 59 -2 25 -5 47 -6 48 -2 1 -17 5 -35 8
-29 6 -33 4 -43 -28z"/>
<path d="M2125 1615 c-11 -14 -25 -31 -31 -38 -8 -9 -5 -21 11 -46 21 -30 24
-31 34 -14 9 16 10 16 11 -6 0 -19 3 -22 12 -13 11 11 16 26 22 67 3 21 -20
75 -32 75 -4 0 -16 -12 -27 -25z"/>
<path d="M3930 1595 c-7 -8 -20 -15 -29 -15 -20 0 -45 -36 -31 -45 6 -4 8 -10
5 -15 -8 -12 4 -38 21 -44 8 -3 25 -1 38 4 21 8 24 15 24 64 0 60 -8 75 -28
51z"/>
<path d="M3685 1580 c-7 -23 -16 -25 -33 -8 -9 9 -12 9 -12 1 0 -7 4 -14 8
-17 5 -3 7 -19 4 -36 -4 -30 13 -64 28 -55 4 3 10 -4 13 -15 7 -25 27 -26 27
-1 0 10 6 21 14 24 16 6 8 69 -15 105 -17 27 -26 28 -34 2z"/>
<path d="M2375 1552 c5 -17 1 -24 -19 -34 -23 -10 -25 -16 -20 -45 4 -20 2
-33 -4 -33 -6 0 -6 -9 1 -24 9 -18 15 -22 24 -14 9 7 14 6 19 -6 10 -27 34
-18 41 15 4 21 10 28 21 24 13 -5 13 -3 1 11 -11 13 -11 18 -1 21 26 9 11 48
-29 77 -38 27 -41 27 -34 8z"/>
<path d="M3468 1433 c6 -2 12 -8 12 -13 0 -9 -39 -23 -57 -21 -7 1 -13 -2 -13
-6 1 -18 17 -28 48 -29 23 -1 29 2 22 11 -6 7 -6 15 2 23 13 13 3 42 -14 41
-10 0 -10 -2 0 -6z"/>
<path d="M2154 1405 c-4 -8 -12 -15 -20 -15 -23 0 -18 -73 6 -88 11 -7 20 -19
20 -27 0 -13 5 -12 35 2 19 9 35 19 36 22 4 29 4 78 1 89 -2 6 -15 12 -28 12
-13 0 -24 5 -24 10 0 16 -20 12 -26 -5z m76 -29 c0 -3 -4 -8 -10 -11 -5 -3
-10 -1 -10 4 0 6 5 11 10 11 6 0 10 -2 10 -4z"/>
<path d="M2570 1373 c0 -9 -8 -25 -17 -35 -19 -22 -28 -88 -11 -88 5 0 7 -7 4
-16 -9 -23 12 -44 44 -44 23 0 27 4 28 28 0 15 2 47 4 72 3 34 -1 48 -14 58
-9 7 -15 19 -12 27 4 9 0 15 -10 15 -9 0 -16 -8 -16 -17z"/>
<path d="M2892 1281 c0 -3 -1 -9 -2 -13 -7 -23 -4 -74 5 -80 17 -13 23 -9 29
18 5 20 10 23 20 15 18 -15 26 -4 26 36 0 32 -1 33 -39 31 -22 -1 -40 -4 -39
-7z"/>
<path d="M3189 1266 c13 -16 13 -18 0 -16 -29 5 -39 0 -39 -19 0 -11 -4 -23
-10 -26 -15 -9 -12 -25 5 -25 8 0 15 -4 15 -9 0 -5 9 -11 20 -14 16 -4 20 2
26 38 8 53 3 77 -16 83 -13 5 -13 3 -1 -12z"/>
<path d="M3485 1270 c-3 -5 -3 -15 0 -21 4 -6 -3 -17 -14 -26 -15 -10 -19 -18
-12 -26 5 -7 9 -16 9 -20 0 -5 3 -11 6 -14 3 -4 6 1 6 10 0 21 19 22 26 2 8
-21 31 -19 39 4 3 11 13 22 21 25 8 3 12 10 9 16 -4 6 -11 7 -17 4 -6 -4 -9
-1 -6 7 10 30 -51 66 -67 39z"/>
<path d="M3632 2663 c-43 -8 -65 -108 -36 -168 20 -44 36 -52 61 -31 10 8 29
23 42 34 25 19 40 92 19 92 -5 0 -8 7 -4 15 8 23 -4 45 -25 45 -10 0 -19 5
-19 10 0 6 -3 9 -7 9 -5 -1 -18 -4 -31 -6z"/>
<path d="M2383 2633 c-3 -7 -12 -13 -20 -13 -22 0 -43 -26 -43 -52 0 -13 -5
-29 -10 -34 -8 -8 -6 -15 5 -24 8 -7 15 -18 15 -25 0 -17 46 -36 67 -28 10 4
24 13 31 20 35 35 66 161 39 165 -45 5 -80 1 -84 -9z"/>
<path d="M2440 939 c0 -5 5 -7 10 -4 6 3 10 8 10 11 0 2 -4 4 -10 4 -5 0 -10
-5 -10 -11z"/>
</g>
</svg>
